<?xml version="1.0" encoding="UTF-8" standalone="no"?>
<svg width="19px" height="16px" viewBox="0 0 19 16" version="1.1" xmlns="http://www.w3.org/2000/svg" xmlns:xlink="http://www.w3.org/1999/xlink">
    <!-- Generator: Sketch 40.1 (33804) - http://www.bohemiancoding.com/sketch -->
    <title>Shape</title>
    <desc>Created with Sketch.</desc>
    <defs></defs>
    <g id="Page-1" stroke="none" stroke-width="1" fill="none" fill-rule="evenodd">
        <g id="Artboard-2" transform="translate(-997.000000, -420.000000)" fill="#999999">
            <path d="M1012.88083,420.072188 L1000.04615,420.072188 L997.042369,425.195946 L1006.45897,436.005776 L1015.87546,425.195946 L1012.88083,420.072188 L1012.88083,420.072188 Z M1002.22979,425.599606 L1005.14762,433.111398 L998.604762,425.599606 L1002.22979,425.599606 L1002.22979,425.599606 Z M1009.6663,425.599606 L1006.44701,433.887077 L1003.22845,425.599606 L1009.6663,425.599606 L1009.6663,425.599606 Z M1003.18168,424.721812 L1004.65031,420.949982 L1008.24469,420.949982 L1009.71331,424.721812 L1003.18168,424.721812 L1003.18168,424.721812 Z M1010.66508,425.599606 L1014.31477,425.599606 L1007.72735,433.160856 L1010.66508,425.599606 L1010.66508,425.599606 Z M1014.52918,424.721812 L1010.71209,424.721812 L1009.2431,420.949982 L1012.32369,420.949982 L1014.52918,424.721812 L1014.52918,424.721812 Z M1000.60147,420.949982 L1003.65177,420.949982 L1002.18291,424.721812 L998.390965,424.721812 L1000.60147,420.949982 L1000.60147,420.949982 Z" id="Shape"></path>
        </g>
    </g>
</svg>