<?xml version="1.0" encoding="UTF-8" standalone="no"?>
<svg width="113px" height="113px" viewBox="0 0 113 113" version="1.1" xmlns="http://www.w3.org/2000/svg" xmlns:xlink="http://www.w3.org/1999/xlink">
    <!-- Generator: Sketch 40.1 (33804) - http://www.bohemiancoding.com/sketch -->
    <title>idea</title>
    <desc>Created with Sketch.</desc>
    <defs></defs>
    <g id="Page-1" stroke="none" stroke-width="1" fill="none" fill-rule="evenodd">
        <g id="Artboard-2" transform="translate(-1058.000000, -121.000000)" fill="#E7E7E7">
            <g id="idea" transform="translate(1058.000000, 121.000000)">
                <g id="Layer_1">
                    <g id="Group">
                        <path d="M93.6150323,87.7353871 L73.245871,83.8387097 L71.3995968,83.8387097 C81.1595161,78.3709677 88.1017258,69.121371 89.1551774,57.6901452 C94.8051774,54.9817903 98.4211774,49.3773548 98.4211774,43.0384194 L98.4211774,40.8731935 C98.4193548,37.4321613 95.6180484,34.6290323 92.173371,34.6290323 C91.2092258,34.6290323 90.2414355,34.8568548 89.3793548,35.2888065 L89.3064516,35.3252581 L89.3064516,32.8064516 L23.6935484,32.8064516 L23.6935484,35.3252581 L23.6206452,35.2888065 C22.7567419,34.8568548 21.7907742,34.6290323 20.826629,34.6290323 C17.3819516,34.6290323 14.5806452,37.4321613 14.5806452,40.8750161 L14.5806452,43.0402419 C14.5806452,49.3791774 18.1984677,54.996371 23.8466452,57.7065484 C24.8982742,69.1122581 31.8131452,78.3709677 41.5420806,83.8387097 L40.0967742,83.8387097 L19.3849677,87.7499677 C8.15422581,89.8896774 0,99.7425484 0,111.177419 L0,113 L113,113 L113,111.177419 C113,99.7425484 104.845774,89.8750968 93.6150323,87.7353871 L93.6150323,87.7353871 Z M89.3064516,39.402371 L91.0105645,38.5494032 C91.3696129,38.3689677 91.7724032,38.2741935 92.173371,38.2741935 C93.6077419,38.2741935 94.7741935,39.4406452 94.7741935,40.8750161 L94.7741935,43.0402419 C94.7741935,47.2795645 92.681871,51.0996935 89.3064516,53.4307742 L89.3064516,39.402371 L89.3064516,39.402371 Z M23.6935484,53.4289516 C20.318129,51.0996935 18.2258065,47.2795645 18.2258065,43.0402419 L18.2258065,40.8750161 C18.2258065,39.4406452 19.3922581,38.2741935 20.826629,38.2741935 C21.2294194,38.2741935 21.6303871,38.3689677 21.9912581,38.5494032 L23.6935484,39.4005484 L23.6935484,53.4289516 L23.6935484,53.4289516 Z M27.3387097,54.6774194 L27.3387097,36.4516129 L85.6612903,36.4516129 L85.6612903,54.6774194 C85.6612903,70.7562258 72.5788065,83.8387097 56.5,83.8387097 C40.4211935,83.8387097 27.3387097,70.7562258 27.3387097,54.6774194 L27.3387097,54.6774194 Z M3.72717742,109.354839 C4.5291129,100.458823 11.1541935,93.0281613 20.0684355,91.3313387 L39.2310484,87.6807097 L53.1628548,109.354839 L3.72717742,109.354839 L3.72717742,109.354839 Z M43.4339194,87.483871 L69.5660806,87.483871 L56.5,107.80929 L43.4339194,87.483871 L43.4339194,87.483871 Z M59.8371452,109.356661 L59.8371452,109.354839 L73.7689516,87.6825323 L92.9315645,91.3331613 C101.845806,93.0299839 108.469065,100.460645 109.272823,109.356661 L59.8371452,109.356661 L59.8371452,109.356661 Z" id="Shape"></path>
                        <path d="M37.4394516,29.1612903 C40.7693065,29.1612903 43.9843387,27.9529194 46.4903871,25.7603548 L56.5,17.0028548 L66.5096129,25.7603548 C69.0156613,27.9529194 72.2306935,29.1612903 75.5605484,29.1612903 C83.1388387,29.1612903 89.3064516,22.9955 89.3064516,15.4153871 L89.3064516,13.7459032 C89.3064516,6.16579032 83.1388387,0 75.5605484,0 C72.2306935,0 69.0156613,1.20837097 66.5096129,3.40093548 L56.5,12.1584355 L46.4903871,3.40093548 C43.9843387,1.20837097 40.7693065,0 37.4394516,0 C29.8611613,0 23.6935484,6.16579032 23.6935484,13.7459032 L23.6935484,15.4153871 C23.6935484,22.9955 29.8611613,29.1612903 37.4394516,29.1612903 L37.4394516,29.1612903 Z M68.9099516,6.14391935 C70.7507581,4.53275806 73.1128226,3.64516129 75.5605484,3.64516129 C81.1303548,3.64516129 85.6612903,8.17609677 85.6612903,13.7459032 L85.6612903,15.4153871 C85.6612903,20.9851935 81.1303548,25.516129 75.5605484,25.516129 C73.1128226,25.516129 70.7507581,24.6285323 68.9099516,23.017371 L59.2685,14.5806452 L68.9099516,6.14391935 L68.9099516,6.14391935 Z M27.3387097,13.7459032 C27.3387097,8.17609677 31.8696452,3.64516129 37.4394516,3.64516129 C39.8871774,3.64516129 42.2492419,4.53275806 44.0900484,6.14391935 L53.7315,14.5806452 L44.0900484,23.017371 C42.2492419,24.6285323 39.8871774,25.516129 37.4394516,25.516129 C31.8696452,25.516129 27.3387097,20.9851935 27.3387097,15.4153871 L27.3387097,13.7459032 L27.3387097,13.7459032 Z" id="Shape"></path>
                        <rect id="Rectangle-path" x="14.5806452" y="0" width="3.64516129" height="3.64516129"></rect>
                        <rect id="Rectangle-path" x="10.9354839" y="3.64516129" width="3.64516129" height="3.64516129"></rect>
                        <rect id="Rectangle-path" x="18.2258065" y="3.64516129" width="3.64516129" height="3.64516129"></rect>
                        <rect id="Rectangle-path" x="14.5806452" y="7.29032258" width="3.64516129" height="3.64516129"></rect>
                        <rect id="Rectangle-path" x="96.5967742" y="0" width="3.64516129" height="3.64516129"></rect>
                        <rect id="Rectangle-path" x="92.9516129" y="3.64516129" width="3.64516129" height="3.64516129"></rect>
                        <rect id="Rectangle-path" x="100.241935" y="3.64516129" width="3.64516129" height="3.64516129"></rect>
                        <rect id="Rectangle-path" x="96.5967742" y="7.29032258" width="3.64516129" height="3.64516129"></rect>
                        <rect id="Rectangle-path" x="105.709677" y="20.0483871" width="3.64516129" height="3.64516129"></rect>
                        <rect id="Rectangle-path" x="102.064516" y="23.6935484" width="3.64516129" height="3.64516129"></rect>
                        <rect id="Rectangle-path" x="109.354839" y="23.6935484" width="3.64516129" height="3.64516129"></rect>
                        <rect id="Rectangle-path" x="105.709677" y="27.3387097" width="3.64516129" height="3.64516129"></rect>
                        <rect id="Rectangle-path" x="7.29032258" y="16.4032258" width="3.64516129" height="3.64516129"></rect>
                        <rect id="Rectangle-path" x="3.64516129" y="20.0483871" width="3.64516129" height="3.64516129"></rect>
                        <rect id="Rectangle-path" x="10.9354839" y="20.0483871" width="3.64516129" height="3.64516129"></rect>
                        <rect id="Rectangle-path" x="7.29032258" y="23.6935484" width="3.64516129" height="3.64516129"></rect>
                        <path d="M74.7258065,21.8709677 C78.7464194,21.8709677 82.016129,18.6012581 82.016129,14.5806452 C82.016129,10.5600323 78.7464194,7.29032258 74.7258065,7.29032258 C70.7051935,7.29032258 67.4354839,10.5600323 67.4354839,14.5806452 C67.4354839,18.6012581 70.7051935,21.8709677 74.7258065,21.8709677 L74.7258065,21.8709677 Z M74.7258065,10.9354839 C76.7361129,10.9354839 78.3709677,12.5703387 78.3709677,14.5806452 C78.3709677,16.5909516 76.7361129,18.2258065 74.7258065,18.2258065 C72.7155,18.2258065 71.0806452,16.5909516 71.0806452,14.5806452 C71.0806452,12.5703387 72.7155,10.9354839 74.7258065,10.9354839 L74.7258065,10.9354839 Z" id="Shape"></path>
                        <path d="M38.2741935,21.8709677 C42.2948065,21.8709677 45.5645161,18.6012581 45.5645161,14.5806452 C45.5645161,10.5600323 42.2948065,7.29032258 38.2741935,7.29032258 C34.2535806,7.29032258 30.983871,10.5600323 30.983871,14.5806452 C30.983871,18.6012581 34.2535806,21.8709677 38.2741935,21.8709677 L38.2741935,21.8709677 Z M38.2741935,10.9354839 C40.2845,10.9354839 41.9193548,12.5703387 41.9193548,14.5806452 C41.9193548,16.5909516 40.2845,18.2258065 38.2741935,18.2258065 C36.2638871,18.2258065 34.6290323,16.5909516 34.6290323,14.5806452 C34.6290323,12.5703387 36.2638871,10.9354839 38.2741935,10.9354839 L38.2741935,10.9354839 Z" id="Shape"></path>
                    </g>
                </g>
            </g>
        </g>
    </g>
</svg>