<?xml version="1.0" standalone="no"?><!DOCTYPE svg PUBLIC "-//W3C//DTD SVG 1.1//EN" "http://www.w3.org/Graphics/SVG/1.1/DTD/svg11.dtd"><svg width="200" height="200" viewBox="0 0 200 200" version="1.1" xmlns="http://www.w3.org/2000/svg" xmlns:xlink="http://www.w3.org/1999/xlink"><defs><style type="text/css"><![CDATA[
@font-face { font-family: ifont; src: url("//at.alicdn.com/t/font_1442373896_4754455.eot?#iefix") format("embedded-opentype"), url("//at.alicdn.com/t/font_1442373896_4754455.woff") format("woff"), url("//at.alicdn.com/t/font_1442373896_4754455.ttf") format("truetype"), url("//at.alicdn.com/t/font_1442373896_4754455.svg#ifont") format("svg"); }

]]></style></defs><g class="transform-group"><g transform="scale(0.1953125, 0.1953125)"><path d="M398.222 9.143l424.635 424.635c42.667 42.667 42.667 112.762 0 155.429l-425.651 425.651c-11.175 12.191-30.476 12.19-42.667 0-12.191-11.175-12.19-30.476 0-42.667l425.651-426.667c9.143-9.143 14.222-21.333 14.222-34.54 0-13.206-5.079-25.397-14.222-34.54l-424.635-424.635c-12.191-11.175-12.19-30.476 0-42.667 6.095-6.095 13.206-9.143 21.333-9.143 8.127 0 15.238 3.048 21.333 9.143z" fill="#888"></path></g></g></svg>