<?xml version="1.0" standalone="no"?><!DOCTYPE svg PUBLIC "-//W3C//DTD SVG 1.1//EN" "http://www.w3.org/Graphics/SVG/1.1/DTD/svg11.dtd"><svg width="200" height="200" viewBox="0 0 200 200" version="1.1" xmlns="http://www.w3.org/2000/svg" xmlns:xlink="http://www.w3.org/1999/xlink"><defs><style type="text/css"><![CDATA[
@font-face { font-family: ifont; src: url("//at.alicdn.com/t/font_1442373896_4754455.eot?#iefix") format("embedded-opentype"), url("//at.alicdn.com/t/font_1442373896_4754455.woff") format("woff"), url("//at.alicdn.com/t/font_1442373896_4754455.ttf") format("truetype"), url("//at.alicdn.com/t/font_1442373896_4754455.svg#ifont") format("svg"); }

]]></style></defs><g class="transform-group"><g transform="scale(0.1953125, 0.1953125)"><path d="M625.777778 1014.857143 201.142857 590.222222c-42.666667-42.666667-42.666667-112.761905 0-155.428571L626.793651 9.142857c11.174603-12.190476 30.47619-12.190476 42.666667 0 12.190476 11.174603 12.190476 30.47619 0 42.666667l-425.650794 426.666667c-9.142857 9.142857-14.222222 21.333333-14.222222 34.539683 0 13.206349 5.079365 25.396825 14.222222 34.539683l424.634921 424.634921c12.190476 11.174603 12.190476 30.47619 0 42.666667-6.095238 6.095238-13.206349 9.142857-21.333333 9.142857C638.984127 1024 631.873016 1020.952381 625.777778 1014.857143z" fill="#fff"></path></g></g></svg>