<?xml version="1.0" encoding="UTF-8" standalone="no"?>
<svg width="18px" height="20px" viewBox="0 0 18 20" version="1.1" xmlns="http://www.w3.org/2000/svg" xmlns:xlink="http://www.w3.org/1999/xlink">
    <!-- Generator: Sketch 40.1 (33804) - http://www.bohemiancoding.com/sketch -->
    <title>Group</title>
    <desc>Created with Sketch.</desc>
    <defs></defs>
    <g id="Page-1" stroke="none" stroke-width="1" fill="none" fill-rule="evenodd">
        <g id="Artboard-2" transform="translate(-752.000000, -418.000000)" fill="#999999">
            <g id="Group" transform="translate(752.000000, 418.000000)">
                <path d="M8.91195082,2.11008346 C9.2257721,2.11008346 9.4801923,1.86906562 9.4801923,1.5715142 L9.4801923,0.538410277 C9.4801923,0.24105757 9.2257721,0 8.91195082,0 C8.59808762,0 8.34370933,0.24105759 8.34370933,0.538410277 L8.34370933,1.57149432 C8.34370933,1.86906562 8.59806665,2.11008346 8.91195082,2.11008346 L8.91195082,2.11008346 Z M1.82844256,4.46720573 L0.852466155,3.95260116 C0.582991239,3.81044257 0.236188023,3.89825342 0.0779669081,4.14855112 C-0.0802542071,4.39900777 0.00996915352,4.71714577 0.279506975,4.85930436 L1.25548338,5.37390893 C1.5249583,5.51606753 1.87176151,5.42825667 2.02998263,5.1778199 C2.18820372,4.9275023 2.09798038,4.6092451 1.82844256,4.46720573 L1.82844256,4.46720573 Z M4.06603624,2.55676825 C4.22297833,2.80497947 4.57051543,2.8899686 4.84231773,2.7466376 C5.11405712,2.6033066 5.20723691,2.28598334 5.05031579,2.03761316 L4.4820743,1.13862 C4.32513222,0.890269683 3.97759512,0.805260662 3.70579282,0.948591662 C3.43405342,1.09192266 3.34087364,1.40940489 3.49779476,1.65761611 L4.06603624,2.55676825 L4.06603624,2.55676825 Z M12.8924718,2.85004737 C13.1642741,2.99576291 13.5118112,2.90930331 13.6687533,2.65670055 L14.2369948,1.74236682 C14.3939369,1.48992303 14.300799,1.16703584 14.0289967,1.02120106 C13.7571944,0.875485522 13.4096573,0.961945126 13.2527782,1.21448826 L12.6844947,2.1288816 C12.5276156,2.38128565 12.6207324,2.70417286 12.8924718,2.85004737 L12.8924718,2.85004737 Z M10.2958299,18.8650658 L7.45875306,18.8650658 C7.20223609,18.8650658 6.99430094,19.0620689 6.99430094,19.3051335 L6.99430094,19.4446293 C6.99430094,19.687674 7.20223609,19.884697 7.45875306,19.884697 L10.2958299,19.884697 C10.5523469,19.884697 10.760282,19.6876939 10.760282,19.4446293 L10.760282,19.3051335 C10.760282,19.0620887 10.5523468,18.8650658 10.2958299,18.8650658 L10.2958299,18.8650658 Z M17.6650419,4.22322707 C17.5081628,3.9708429 17.1606257,3.88422433 16.8888234,4.03003922 L15.9046067,4.55789789 C15.6328044,4.7037724 15.5396875,5.02652051 15.6965667,5.2791034 C15.8535088,5.53164653 16.2010459,5.61810614 16.4728482,5.47229125 L17.4570648,4.94443258 C17.7289091,4.79855807 17.821984,4.47580996 17.6650419,4.22322707 L17.6650419,4.22322707 Z M11.3718215,17.3354798 L6.38276146,17.3354798 C6.12624449,17.3354798 5.91830934,17.5324829 5.91830934,17.7756468 L5.91830934,17.9149837 C5.91830934,18.1580284 6.12624449,18.3552104 6.38276146,18.3552104 L11.3718215,18.3552104 C11.6283384,18.3552104 11.8362736,18.1580483 11.8362736,17.9149837 L11.8362736,17.7756468 C11.8362736,17.5324829 11.6283384,17.3354798 11.3718215,17.3354798 L11.3718215,17.3354798 Z M8.87729147,2.54923708 C5.16322605,2.54923708 2.15232827,5.40276192 2.15232827,8.92266759 C2.15232827,11.4347853 3.68987847,13.6011042 5.91830934,14.6392356 L5.91830934,15.8058144 C5.91830934,16.3689643 6.40003873,16.8255449 6.99430094,16.8255449 L10.760282,16.8255449 C11.3545442,16.8255449 11.8362736,16.3689643 11.8362736,15.8058144 L11.8362736,14.6392356 C14.0647045,13.6011042 15.6022547,11.4347654 15.6022547,8.92266759 C15.6022547,5.4027619 12.5913569,2.54923708 8.87729147,2.54923708 L8.87729147,2.54923708 Z M10.760282,13.9650453 L10.760282,15.295959 C10.760282,15.5776134 10.5194278,15.8058342 10.2222757,15.8058342 L7.5323072,15.8058342 C7.2351761,15.8058342 6.99430092,15.5776134 6.99430092,15.295959 L6.99430092,13.9650453 C4.80174552,13.2293537 3.22831985,11.252606 3.22831985,8.92266757 C3.22831985,5.96589195 5.75744631,3.56896766 8.87729145,3.56896766 C11.9971366,3.56896766 14.5262631,5.96591182 14.5262631,8.92266757 C14.5262631,11.252606 12.9528374,13.2293537 10.760282,13.9650453 L10.760282,13.9650453 Z" id="Shape"></path>
            </g>
        </g>
    </g>
</svg>