<?xml version="1.0" encoding="UTF-8" standalone="no"?>
<svg width="20px" height="20px" viewBox="0 0 20 20" version="1.1" xmlns="http://www.w3.org/2000/svg" xmlns:xlink="http://www.w3.org/1999/xlink">
    <!-- Generator: Sketch 40.1 (33804) - http://www.bohemiancoding.com/sketch -->
    <title>Shape</title>
    <desc>Created with Sketch.</desc>
    <defs></defs>
    <g id="Page-1" stroke="none" stroke-width="1" fill="none" fill-rule="evenodd">
        <g id="Artboard-2" transform="translate(-878.000000, -418.000000)" fill="#999999">
            <path d="M897.071054,430.814227 L897.071054,421.856901 C897.071054,421.789998 897.067502,421.714835 897.057568,421.637613 C897.049213,421.574027 896.996957,421.514582 896.961674,421.457651 C896.909681,421.325731 896.792625,421.220282 896.660154,421.167493 C896.475054,421.038109 896.273266,420.955814 896.225483,420.9417 L886.919927,418.075517 C886.774957,418.031746 886.620337,418.046813 886.486572,418.116101 L882.933398,419.955738 L882.874695,419.936074 L882.853841,419.996322 L879.13835,421.920314 C878.544609,422.227925 878.270675,422.446432 878.18182,422.598016 C878.107723,422.685861 878.019833,422.797489 878.019833,422.919263 L878.019833,432.956423 C878.019833,433.182215 878.208113,433.378827 878.425295,433.446706 L889.903722,437.016888 C889.9544,437.032107 890.016611,437.040042 890.069262,437.040042 C890.198532,437.040042 890.32778,436.992781 890.423674,436.907168 L896.849048,431.195093 C896.957792,431.097448 897.071054,430.959176 897.071054,430.814227 L897.071054,430.814227 Z M886.759234,418.707388 L895.747876,421.476686 L892.885961,423.260195 L883.795306,420.241951 L886.759234,418.707388 L886.759234,418.707388 Z M882.9889,420.659433 L892.168388,423.707313 L889.680817,425.25742 C888.808647,425.050988 883.310638,423.616606 879.311587,422.568206 C879.358098,422.541714 879.403008,422.516349 879.443116,422.495732 L882.9889,420.659433 L882.9889,420.659433 Z M878.676795,423.095604 C886.560033,425.112839 888.684179,425.692701 889.378947,425.859655 L889.619855,436.260252 L878.676773,432.857174 L878.676773,423.095604 L878.676795,423.095604 Z M896.414092,430.753676 L890.384882,436.113069 L890.149105,425.778769 L896.41407,421.889702 L896.41407,430.753676 L896.414092,430.753676 Z M886.132445,428.72805 C886.09043,428.869466 885.959231,428.9613 885.817133,428.9613 C885.786652,428.9613 885.755535,428.957181 885.724747,428.948141 L881.015842,427.58322 C880.841663,427.532794 880.741909,427.352355 880.792915,427.180155 C880.843921,427.007954 881.025798,426.909963 881.200614,426.959912 L885.909518,428.324638 C886.083676,428.375238 886.183452,428.55585 886.132445,428.72805 L886.132445,428.72805 Z" id="Shape"></path>
        </g>
    </g>
</svg>